<?xml version="1.0" encoding="utf-8"?>
<!-- Generator: Adobe Illustrator 19.2.1, SVG Export Plug-In . SVG Version: 6.00 Build 0)  -->
<svg version="1.1" id="Layer_1" xmlns="http://www.w3.org/2000/svg" xmlns:xlink="http://www.w3.org/1999/xlink" x="0px" y="0px"
	 viewBox="0 0 45 36.388" enable-background="new 0 0 45 36.388" xml:space="preserve">
<g>
	<g>
		<path fill="#3FA5DD" d="M7.249,22.477l2.885,3.382c0.638,0.747,1.626,1.056,2.654,0.933l-3.347,3.181c0,0-0.289,1.018,1.442,1.691
			c1.733,0.673,3.491-2.977,3.491-2.977l-1.312-1.938c0.107-0.021,0.215-0.044,0.324-0.077l3.995,2.973
			c2.275,2.067,4.366,1.432,6.116-0.061l3.897-3.324l0.03-0.025l3.896-3.325c1.751-1.492,2.708-3.457,1.025-6.029l-2.304-4.414
			c0.049-0.101,0.09-0.204,0.126-0.308l1.707,1.601c0,0,3.883-1.159,3.49-2.976c-0.391-1.817-1.442-1.692-1.442-1.692l-3.669,2.804
			c0.285-0.995,0.136-2.022-0.501-2.768l-2.885-3.383c-0.718-0.842-1.879-1.126-3.045-0.868l-1.939-2.273
			c-0.656-0.77-2.136-0.583-3.309,0.417c-1.171,0.999-1.59,2.433-0.934,3.201l1.613,1.892l-4.218,3.597l-0.03,0.026l-4.218,3.598
			l-1.613-1.892c-0.656-0.769-2.138-0.582-3.309,0.417c-1.173,1-1.59,2.433-0.934,3.201l1.939,2.273
			C6.434,20.443,6.532,21.635,7.249,22.477z M25.314,8.205l1.553,1.82l-3.829,3.266l-1.553-1.82L25.314,8.205z M22.639,20.683
			l0.03-0.025l7.028-5.994l1.798,3.618l0.028,0.051c0.535,0.885,0.22,2.374-0.659,3.124l-4.35,3.709l-0.03,0.026l-4.35,3.709
			c-0.878,0.75-2.399,0.824-3.189,0.157l-0.045-0.035l-3.289-2.346L22.639,20.683z M13.754,18.064l1.553,1.82l-3.829,3.266
			l-1.553-1.82L13.754,18.064z"/>
		<rect x="4.775" y="32.089" fill="#3FA5DD" width="35.602" height="2.171"/>
		<polygon fill="#3FA5DD" points="31.692,24.068 31.872,24.905 33.714,24.509 32.299,26.203 33.735,27.667 31.792,27.622 
			31.162,29.713 29.968,28.307 28.027,28.979 29.16,26.458 28.379,26.107 26.435,30.435 29.694,29.307 31.527,31.467 32.423,28.492 
			35.82,28.573 33.453,26.157 35.964,23.152 		"/>
	</g>
</g>
</svg>
