<?xml version="1.0" encoding="utf-8"?>
<!-- Generator: Adobe Illustrator 19.2.1, SVG Export Plug-In . SVG Version: 6.00 Build 0)  -->
<svg version="1.1" id="Layer_1" xmlns="http://www.w3.org/2000/svg" xmlns:xlink="http://www.w3.org/1999/xlink" x="0px" y="0px"
	 viewBox="0 0 45 36.388" enable-background="new 0 0 45 36.388" xml:space="preserve">
<g>
	<path fill="#3FA5DD" d="M40.575,12.045V9.362h-0.147V6.805h-0.146V5.899h-1.045v0.903c0,0-25.283,0.179-29.697,0
		c-0.676,0-4.53,0.381-0.664,6.326c0,0,1.757,2.665-0.65,5.637c-2.374,2.93-3.444,8.863-3.723,10.656H4.425v1.067h10.956v-1.067
		V28.44c-4.733,0.872,3.271-10.145,2.916-8.29c0.258,0.066,0.524,0.107,0.803,0.107h2.852c1.761,0,4.1-1.884,4.1-3.647
		c0-0.765-0.27-1.465-0.717-2.015h14.11l0.456-1.679h0.598v-0.813H40.4l0.024-0.059H40.575z M21.956,18.697h-2.852
		c-0.21,0-0.413-0.034-0.604-0.091c0.166-0.979,0.294-1.855,0.386-2.537c0.239,0.792,0.707,1.62,1.626,1.979
		c0.065,0.024,0.13,0.036,0.196,0.036c0.214,0,0.42-0.133,0.504-0.343c0.107-0.28-0.031-0.593-0.31-0.702
		c-0.951-0.369-1.141-1.807-1.178-2.437h2.749c0.896,0.232,1.566,1.047,1.566,2.015C24.039,17.761,23.104,18.697,21.956,18.697z
		 M36.586,12.92H22.501l2.445-0.813h11.64V12.92z"/>
</g>
</svg>
