<?xml version="1.0" encoding="utf-8"?>
<!-- Generator: Adobe Illustrator 19.2.1, SVG Export Plug-In . SVG Version: 6.00 Build 0)  -->
<svg version="1.1" id="Layer_1" xmlns="http://www.w3.org/2000/svg" xmlns:xlink="http://www.w3.org/1999/xlink" x="0px" y="0px"
	 viewBox="0 0 45 36.388" enable-background="new 0 0 45 36.388" xml:space="preserve">
<g>
	<path fill="#3FA5DD" d="M23.71,29.984l-4.201,1.89c-0.187,0.088-0.382,0.125-0.576,0.125c-0.193,0-0.373-0.083-0.545-0.156
		l-0.038,0.026l-0.053-0.055c-0.273-0.139-3.26-3.357-3.26-3.357l-0.202,6.628H6.24l-0.2-6.625l-0.642,6.625H2.608
		c0.35-3.823,0.873-8.972,1.18-9.609c1.007-2.043,2.553-3.284,6.356-3.284h0.392h0.387c3.808,0,4.536,1.119,6.358,3.284
		c1.347,1.601,1.375,1.891,2.323,3.285l2.952-1.331c0.7-0.321,1.539-0.005,1.861,0.705C24.73,28.839,24.417,29.668,23.71,29.984z
		 M41.252,10.661c-0.761-0.157-1.494,0.354-1.639,1.115l-1.898,9.853c0,0-0.199,1.181-1.311,0.875
		c-0.754-0.212-1.655-0.311-2.751-0.311H33.27h-0.388c-1.096,0-2,0.098-2.751,0.311c-1.111,0.306-1.316-0.875-1.316-0.875
		l-1.893-9.853c-0.147-0.761-0.879-1.271-1.642-1.115c-0.759,0.151-1.256,0.881-1.112,1.642c0,0,2.184,11.566,2.487,12.941
		c0.305,1.373,2.114,1.736,2.114,1.736l0.207,8.106h4.294h4.294l0.2-8.106c0,0,1.81-0.365,2.113-1.736
		c0.306-1.375,2.49-12.941,2.49-12.941C42.511,11.542,42.014,10.812,41.252,10.661z M10.536,21.234c2.252,0,4.075-1.818,4.075-4.07
		c0-2.252-1.822-4.079-4.075-4.079c-2.253,0-4.08,1.825-4.08,4.077C6.454,19.414,8.285,21.234,10.536,21.234z M33.275,21.234
		c2.243,0,4.071-1.818,4.071-4.07c0-2.252-1.828-4.077-4.071-4.077c-2.259,0-4.088,1.825-4.088,4.077
		C29.188,19.417,31.019,21.234,33.275,21.234z M5.352,9.187l2.773,1.127l0.782-4.201l1.756,2.695l2.632-3.538l-0.092,4.201
		l3.336-1.382l-1.289,3.816l4.103-0.228l-2.271,3.667l4.912-5.314l-5.527,1.037l2.764-5.502l-4.712,2.242l0.177-6.506L10.56,7.216
		L8.263,3.172L7.541,8.953L3.362,7.28l2.323,5.469L5.352,9.187z"/>
</g>
</svg>
