<?xml version="1.0" encoding="utf-8"?>
<!-- Generator: Adobe Illustrator 19.2.1, SVG Export Plug-In . SVG Version: 6.00 Build 0)  -->
<svg version="1.1" id="Layer_1" xmlns="http://www.w3.org/2000/svg" xmlns:xlink="http://www.w3.org/1999/xlink" x="0px" y="0px"
	 viewBox="0 0 45 36.388" enable-background="new 0 0 45 36.388" xml:space="preserve">
<g>
	<path fill="#3FA5DD" d="M25.255,6.462l-1.964,1.809c-0.448,0.409-1.128,0.409-1.576,0l-1.984-1.789
		c-0.602-0.544-1.556-0.331-1.867,0.409l-1.614,3.89h12.486l-1.614-3.909C26.812,6.132,25.858,5.918,25.255,6.462z"/>
	<path fill="#3FA5DD" d="M12.555,14.34c-0.564,0.272-0.35,1.108,0.253,1.108h9.686h9.666c0.623,0,0.817-0.837,0.272-1.108
		l-2.372-1.226H14.928L12.555,14.34z"/>
	<path fill="#3FA5DD" d="M10.57,23.695l1.031,5.602c0.098,0.564,0.583,0.934,1.147,0.934h9.744h9.764
		c0.563,0,1.05-0.389,1.147-0.934l1.031-5.602c0.097-0.544-0.194-1.089-0.719-1.303c-2.49-0.973-5.096-1.498-7.158-1.809
		c-0.525-0.078-1.031,0.214-1.225,0.681l-1.965,4.454c-0.35,0.778-1.458,0.778-1.789-0.02l-1.906-4.415
		c-0.214-0.486-0.72-0.778-1.245-0.701c-2.062,0.292-4.668,0.837-7.138,1.809C10.766,22.586,10.454,23.131,10.57,23.695z"/>
</g>
</svg>
