<?xml version="1.0" encoding="utf-8"?>
<!-- Generator: Adobe Illustrator 19.2.1, SVG Export Plug-In . SVG Version: 6.00 Build 0)  -->
<svg version="1.1" id="Layer_1" xmlns="http://www.w3.org/2000/svg" xmlns:xlink="http://www.w3.org/1999/xlink" x="0px" y="0px"
	 viewBox="0 0 45 36.388" enable-background="new 0 0 45 36.388" xml:space="preserve">
<g>
	<path fill="#3FA5DD" d="M18.19,29.425c-1.514-3.151-0.708-4.957,0.456-6.658c1.274-1.863,1.603-3.707,1.603-3.707
		s1.002,1.303,0.602,3.34c1.769-1.971,2.104-5.11,1.836-6.313c4.002,2.796,5.711,8.851,3.407,13.337
		c12.257-6.935,3.049-17.312,1.446-18.481c0.534,1.169,0.636,3.148-0.444,4.108c-1.827-6.93-6.346-8.35-6.346-8.35
		c0.535,3.574-1.938,7.481-4.32,10.401c-0.083-1.425-0.172-2.408-0.922-3.771c-0.168,2.588-2.147,4.698-2.682,7.292
		C12.1,24.136,13.369,26.708,18.19,29.425z"/>
</g>
</svg>
