<?xml version="1.0" encoding="utf-8"?>
<!-- Generator: Adobe Illustrator 19.2.1, SVG Export Plug-In . SVG Version: 6.00 Build 0)  -->
<svg version="1.1" id="Layer_1" xmlns="http://www.w3.org/2000/svg" xmlns:xlink="http://www.w3.org/1999/xlink" x="0px" y="0px"
	 viewBox="0 0 45 36.388" enable-background="new 0 0 45 36.388" xml:space="preserve">
<g>
	<g>
		<g>
			<path fill="#3FA5DD" d="M19.347,9.92l0.158,0.21c0.385,0.525,0.928,0.788,1.629,0.788c0.56,0,1.034-0.184,1.418-0.551
				c0.386-0.368,0.578-0.815,0.578-1.34c0-0.455-0.018-0.683-0.053-0.683h0.736c-0.14-0.596-0.481-1.103-1.024-1.524
				c-0.544-0.42-1.147-0.631-1.813-0.631c-0.806,0-1.498,0.289-2.075,0.867c-0.578,0.578-0.867,1.27-0.867,2.076
				c0,0.035,0.035,0.298,0.105,0.788H19.347z"/>
			<path fill="#3FA5DD" d="M26.966,18.38l-4.414,1.208v6.2c0.456,0,0.858-0.175,1.209-0.525l4.309-4.782L26.966,18.38z"/>
			<path fill="#3FA5DD" d="M21.029,15.647c0.21,0.315,0.49,0.473,0.841,0.473l2.89,0.052c0.386,0,0.657-0.114,0.814-0.341
				c0.158-0.228,0.158-0.455,0-0.683c-0.158-0.227-0.429-0.341-0.814-0.341h-2.364l-2.364-3.626
				c-0.316-0.35-0.701-0.525-1.156-0.525c-0.525,0-0.946,0.175-1.261,0.525l-3.52,5.202c-0.141,0.245-0.21,0.508-0.21,0.788
				c0,0.525,0.228,0.946,0.683,1.261l4.728,2.522v4.309c0,0.315,0.097,0.578,0.289,0.788c0.193,0.21,0.447,0.315,0.762,0.315
				c0.315,0,0.578-0.105,0.788-0.315c0.21-0.211,0.315-0.473,0.315-0.788v-5.359c0.14-0.596-0.122-1.034-0.788-1.314l-2.89-1.523
				l2.154-3.153L21.029,15.647z"/>
			<path fill="#3FA5DD" d="M31.275,18.222c0.385,0,0.841,0.123,1.366,0.368h0.105c0.175,0,0.263-0.087,0.263-0.263
				c0-0.07-0.018-0.122-0.052-0.158c-0.526-0.455-1.174-0.683-1.944-0.683c-0.315,0-0.876,0.105-1.682,0.315l0.525,0.998
				C30.312,18.415,30.785,18.222,31.275,18.222z"/>
			<path fill="#3FA5DD" d="M13.357,18.905c-0.526-0.245-1.086-0.368-1.681-0.368c-0.841,0-1.507,0.227-1.997,0.683
				c-0.07,0.035-0.105,0.087-0.105,0.157c0,0.175,0.087,0.263,0.263,0.263h0.105c0.525-0.246,0.998-0.368,1.419-0.368
				c0.455,0,0.893,0.105,1.314,0.316l5.675,2.995l-0.053-1.051L13.357,18.905z"/>
			<path fill="#3FA5DD" d="M13.831,21.69c-1.156,0-2.146,0.403-2.969,1.209c-0.823,0.805-1.235,1.769-1.235,2.89
				s0.412,2.075,1.235,2.864c0.823,0.788,1.813,1.182,2.969,1.182c1.156,0,2.146-0.394,2.969-1.182
				c0.823-0.788,1.234-1.743,1.234-2.864s-0.412-2.084-1.234-2.89C15.976,22.093,14.986,21.69,13.831,21.69z M15.906,27.785
				c-0.578,0.561-1.27,0.841-2.075,0.841c-0.806,0-1.489-0.28-2.05-0.841c-0.561-0.561-0.841-1.226-0.841-1.997
				s0.28-1.437,0.841-1.997c0.561-0.561,1.244-0.841,2.05-0.841c0.805,0,1.497,0.28,2.075,0.841c0.578,0.56,0.867,1.226,0.867,1.997
				S16.484,27.224,15.906,27.785z"/>
			<path fill="#3FA5DD" d="M34.191,22.899c-0.823-0.806-1.813-1.209-2.969-1.209c-1.156,0-2.146,0.403-2.969,1.209
				c-0.823,0.805-1.234,1.769-1.234,2.89s0.411,2.075,1.234,2.864c0.823,0.788,1.813,1.182,2.969,1.182
				c1.156,0,2.145-0.394,2.969-1.182c0.823-0.788,1.235-1.743,1.235-2.864S35.014,23.704,34.191,22.899z M33.271,27.785
				c-0.561,0.561-1.244,0.841-2.049,0.841c-0.806,0-1.497-0.28-2.075-0.841c-0.578-0.561-0.867-1.226-0.867-1.997
				s0.289-1.437,0.867-1.997c0.578-0.561,1.27-0.841,2.075-0.841c0.806,0,1.489,0.28,2.049,0.841
				c0.561,0.56,0.841,1.226,0.841,1.997S33.832,27.224,33.271,27.785z"/>
			<path fill="#3FA5DD" d="M25.075,16.856c0,0.315,0.157,0.473,0.473,0.473l1.313-0.053c0.28,0,0.473,0.122,0.578,0.368l1.892,3.783
				l0.946-0.315l-2.049-3.941c-0.28-0.525-0.735-0.788-1.366-0.788h-1.313C25.232,16.383,25.075,16.541,25.075,16.856z"/>
		</g>
	</g>
	<g>
		<circle fill="#FFFFFF" stroke="#27AAE1" stroke-width="0.25" stroke-miterlimit="10" cx="27.676" cy="11.638" r="5.794"/>
		<g>
			<text transform="matrix(1 0 0 1 24.0447 15.6385)" fill="#ED1C24" font-family="'Helvetica-Bold'" font-size="11.8876px">?</text>
		</g>
	</g>
</g>
</svg>
