<?xml version="1.0" encoding="utf-8"?>
<!-- Generator: Adobe Illustrator 19.2.1, SVG Export Plug-In . SVG Version: 6.00 Build 0)  -->
<svg version="1.1" id="Layer_1" xmlns="http://www.w3.org/2000/svg" xmlns:xlink="http://www.w3.org/1999/xlink" x="0px" y="0px"
	 viewBox="0 0 45 36.388" enable-background="new 0 0 45 36.388" xml:space="preserve">
<g>
	<g>
		<path fill="#3FA5DD" d="M35.556,26.942L24.271,7.4C23.906,6.768,23.23,6.378,22.5,6.378S21.094,6.767,20.729,7.4L9.444,26.942
			c-0.365,0.633-0.365,1.413,0,2.046c0.365,0.633,1.041,1.022,1.771,1.022h22.57c0.731,0,1.406-0.39,1.771-1.022
			C35.921,28.355,35.921,27.575,35.556,26.942L35.556,26.942z M11.215,27.965L22.5,8.423l11.285,19.542H11.215z M11.215,27.965"/>
	</g>
	<path fill="#3FA5DD" d="M21.084,15.464l0.586,6.714c0.035,0.396,0.348,0.722,0.756,0.757c0.458,0.04,0.862-0.299,0.902-0.757
		l0.586-6.714c0.007-0.079,0.007-0.167,0-0.248c-0.068-0.781-0.757-1.36-1.539-1.292C21.595,13.993,21.016,14.682,21.084,15.464
		L21.084,15.464z M21.084,15.464"/>
	<path fill="#3FA5DD" d="M23.673,24.525c0,0.647-0.526,1.173-1.173,1.173c-0.648,0-1.173-0.525-1.173-1.173
		c0-0.648,0.525-1.174,1.173-1.174C23.147,23.351,23.673,23.876,23.673,24.525L23.673,24.525z M23.673,24.525"/>
</g>
</svg>
