<?xml version="1.0" encoding="utf-8"?>
<!-- Generator: Adobe Illustrator 19.2.1, SVG Export Plug-In . SVG Version: 6.00 Build 0)  -->
<svg version="1.1" id="Layer_1" xmlns="http://www.w3.org/2000/svg" xmlns:xlink="http://www.w3.org/1999/xlink" x="0px" y="0px"
	 viewBox="0 0 45 36.388" enable-background="new 0 0 45 36.388" xml:space="preserve">
<g>
	<g>
		<path fill="#3FA5DD" d="M24.987,22.453c0.059-0.249,0.1-0.511,0.111-0.792c0.233-5.104-2.556-9.284-6.736-11.971
			c-2.487-1.599-4.845,0.145-5.444,2.367c-1.541-1.227-4.21,0.609-3.009,2.625c0.043,0.073,0.089,0.148,0.134,0.221
			c-1.205-0.005-5.046-0.017-3.971,0.001c1.271,0.022,4.321,3.442,4.321,3.442v-2.886c0.937,1.433,2.135,2.773,3.917,2.976
			c0.813,0.093,1.484-0.159,2.036-0.6c0.696,0.853,1.051,1.81,1.121,2.958c-0.61-0.009-1.222,0.016-1.839,0.087
			c-2.131,0.252-3.445,0.721-3.876,2.949c-0.648,3.361,1.101,5.817,2.986,8.387c1.534,2.09,5.065,0.064,3.511-2.055
			c-1.271-1.732-2.549-3.155-2.497-5.167c1.242-0.189,2.477-0.138,3.739-0.018c0.617,0.266,1.313,0.373,2.002,0.319
			c1.028,3.437,2.98,6.499,5.508,9.11c1.828,1.888,4.7-0.994,2.875-2.874C27.369,28.942,25.69,25.943,24.987,22.453z"/>
		<path fill="#3FA5DD" d="M9.596,5.952C9.602,6.01,9.604,6.067,9.611,6.126c0.259,1.881,1.994,3.197,3.874,2.938
			c1.882-0.258,3.195-1.992,2.938-3.874c-0.053-0.391-0.173-0.755-0.343-1.088c0.116-0.056,0.168-0.19,0.129-0.467l-0.112-0.821
			c-0.127-0.918-0.974-1.561-1.891-1.435l-3.661,0.502c-0.92,0.126-1.562,0.974-1.435,1.893L9.2,4.438
			c-0.513,0.41-0.946,0.927-0.852,1.475C8.43,6.4,8.969,6.279,9.596,5.952z"/>
		<path fill="#3FA5DD" d="M18.883,9.097c0,0,8.242,4.419,7.269,10.932c-2.134,5.43,7.185,11.024,12.253-1.5
			C38.405,18.528,44.857,1.363,18.883,9.097z M32.838,19.316v1.047h-1.114v-0.985c-0.516-0.048-1.029-0.219-1.361-0.455
			l-0.157-0.112l0.404-1.13l0.271,0.181c0.352,0.235,0.806,0.371,1.241,0.371c0.533,0,0.888-0.276,0.888-0.687
			c0-0.277-0.11-0.578-0.926-0.908c-0.861-0.337-1.744-0.828-1.744-1.897c0-0.86,0.565-1.53,1.451-1.753V11.97h1.104v0.949
			c0.422,0.043,0.791,0.16,1.123,0.354l0.185,0.11l-0.421,1.113l-0.26-0.147c-0.152-0.087-0.512-0.293-1.083-0.293
			c-0.563,0-0.763,0.295-0.763,0.572c0,0.3,0.149,0.494,1.033,0.861c0.766,0.312,1.647,0.821,1.647,1.992
			C34.356,18.366,33.754,19.083,32.838,19.316z"/>
	</g>
</g>
</svg>
