<?xml version="1.0" ?><!DOCTYPE svg  PUBLIC '-//W3C//DTD SVG 1.1//EN'  'http://www.w3.org/Graphics/SVG/1.1/DTD/svg11.dtd'><svg enable-background="new 0 0 100 100" height="100px" id="Layer_1" version="1.1" viewBox="0 0 100 100" width="100px" xml:space="preserve" xmlns="http://www.w3.org/2000/svg" xmlns:xlink="http://www.w3.org/1999/xlink"><g><path d="M81.109,46.787l-1.189-2.499l-8.383,3.996c-2.068-2.718-4.641-5.075-7.646-6.915c3.652-3.767,5.713-8.806,5.713-14.099   c0-11.18-9.094-20.274-20.273-20.274s-20.273,9.095-20.273,20.274c0,5.292,2.061,10.331,5.713,14.1   c-2.832,1.734-5.275,3.929-7.279,6.45l-7.41-3.532l-1.189,2.499l6.955,3.315c-2.822,4.399-4.396,9.581-4.396,15.021   c0,15.375,12.508,27.881,27.881,27.881c15.375,0,27.881-12.506,27.881-27.881c0-5.238-1.469-10.232-4.098-14.525L81.109,46.787z    M49.33,9.764c5.615,0,10.609,2.669,13.814,6.792H35.518C38.723,12.433,43.715,9.764,49.33,9.764z M59.041,22.287   c0,1.185-0.961,2.146-2.145,2.146c-1.186,0-2.145-0.961-2.145-2.146c0-1.183,0.959-2.145,2.145-2.145   C58.08,20.143,59.041,21.104,59.041,22.287z M45.131,22.287c0,1.185-0.961,2.146-2.145,2.146c-1.186,0-2.145-0.961-2.145-2.146   c0-1.183,0.959-2.145,2.145-2.145C44.17,20.143,45.131,21.104,45.131,22.287z M49.33,90.236c-13.848,0-25.113-11.266-25.113-25.113   c0-9.369,5.178-17.895,13.51-22.248l1.816-0.949l-1.559-1.331c-3.814-3.25-6.027-7.946-6.139-12.932h34.971   c-0.113,4.985-2.326,9.682-6.141,12.931l-1.561,1.33l1.818,0.949c8.334,4.354,13.512,12.881,13.512,22.25   C74.445,78.971,63.178,90.236,49.33,90.236z"/><polygon points="50.715,51.764 47.947,51.764 47.947,58.475 44.867,58.475 44.867,61.244 47.947,61.244 47.947,65.949    44.867,65.949 44.867,68.717 47.947,68.717 47.947,73.422 44.867,73.422 44.867,76.189 47.947,76.189 47.947,81.865 50.715,81.865    50.715,76.189 53.793,76.189 53.793,73.422 50.715,73.422 50.715,68.717 53.793,68.717 53.793,65.949 50.715,65.949 50.715,61.244    53.793,61.244 53.793,58.475 50.715,58.475  "/><rect height="2.769" width="13.004" x="42.828" y="30.759"/></g></svg>