<?xml version="1.0" encoding="utf-8"?>
<!-- Generator: Adobe Illustrator 19.2.1, SVG Export Plug-In . SVG Version: 6.00 Build 0)  -->
<svg version="1.1" id="Layer_1" xmlns="http://www.w3.org/2000/svg" xmlns:xlink="http://www.w3.org/1999/xlink" x="0px" y="0px"
	 viewBox="0 0 45 36.388" enable-background="new 0 0 45 36.388" xml:space="preserve">
<g>
	<g>
		<path fill="#3FA5DD" d="M38.205,12.975h-2.409c-0.183,0-0.359,0.072-0.491,0.198l-0.514,0.493
			c-0.867-2.005-2.109-3.988-3.788-6.039c-0.908-1.109-2.249-1.745-3.683-1.745H17.68c-1.433,0-2.775,0.636-3.683,1.745
			c-1.732,2.116-2.949,4.051-3.795,6.032l-0.507-0.485c-0.132-0.126-0.309-0.198-0.491-0.198H6.795
			c-0.392,0-0.711,0.319-0.711,0.711v1.646c0,0.376,0.292,0.686,0.667,0.709l2.475,0.156c-0.374,1.093-0.666,2.721-0.666,5.018
			c0,1.992,0.398,3.302,1.091,4.15v3.836c0,0.329,0.267,0.595,0.596,0.595h2.739c0.329,0,0.596-0.266,0.596-0.595V26.82h17.838
			v2.382c0,0.329,0.267,0.595,0.596,0.595h2.739c0.329,0,0.596-0.266,0.596-0.595v-3.836c0.693-0.848,1.091-2.157,1.091-4.15
			c0-2.297-0.292-3.925-0.666-5.018l2.475-0.156c0.375-0.024,0.667-0.334,0.667-0.709v-1.646
			C38.916,13.294,38.598,12.975,38.205,12.975z M16.03,9.289c0.407-0.496,1.008-0.782,1.649-0.782h9.641
			c0.642,0,1.242,0.285,1.649,0.782c1.174,1.436,2.102,2.81,2.819,4.179l-18.595,0.004C13.897,12.133,14.828,10.757,16.03,9.289z
			 M14.004,23.907c-1.363,0-2.469-0.446-2.469-1.526c0-1.08,0.401-1.956,1.764-1.956c1.363,0,3.173,0.876,3.173,1.956
			C16.473,23.462,15.367,23.907,14.004,23.907z M25.088,23.682h-5.176c-0.78,0-1.416-0.635-1.416-1.415
			c0-0.219,0.179-0.396,0.397-0.396h7.213c0.219,0,0.397,0.177,0.397,0.396C26.503,23.046,25.868,23.682,25.088,23.682z
			 M30.996,23.907c-1.363,0-2.469-0.446-2.469-1.526c0-1.08,1.81-1.956,3.173-1.956c1.363,0,1.764,0.876,1.764,1.956
			C33.464,23.462,32.359,23.907,30.996,23.907z"/>
	</g>
	<g>
		<circle fill="#FFFFFF" stroke="#27AAE1" stroke-width="0.25" stroke-miterlimit="10" cx="32.894" cy="11.208" r="6.022"/>
		<g>
			<text transform="matrix(1 0 0 1 29.1204 15.3667)" fill="#ED1C24" font-family="'Helvetica-Bold'" font-size="12.356px">?</text>
		</g>
	</g>
</g>
</svg>
